<svg xmlns="http://www.w3.org/2000/svg" width="1280" height="640" viewBox="0 0 1280 640">
  <defs>
    <radialGradient id="glow" cx="50%" cy="38%" r="40%">
      <stop offset="0%" stop-color="#4ade80" stop-opacity="0.12"/>
      <stop offset="100%" stop-color="#4ade80" stop-opacity="0"/>
    </radialGradient>
  </defs>

  <!-- Background -->
  <rect width="1280" height="640" fill="#0d1117"/>

  <!-- Grid -->
  <g stroke="#374151" stroke-opacity="0.3" stroke-width="1">
    <line x1="0" y1="40" x2="1280" y2="40"/><line x1="0" y1="80" x2="1280" y2="80"/>
    <line x1="0" y1="120" x2="1280" y2="120"/><line x1="0" y1="160" x2="1280" y2="160"/>
    <line x1="0" y1="200" x2="1280" y2="200"/><line x1="0" y1="240" x2="1280" y2="240"/>
    <line x1="0" y1="280" x2="1280" y2="280"/><line x1="0" y1="320" x2="1280" y2="320"/>
    <line x1="0" y1="360" x2="1280" y2="360"/><line x1="0" y1="400" x2="1280" y2="400"/>
    <line x1="0" y1="440" x2="1280" y2="440"/><line x1="0" y1="480" x2="1280" y2="480"/>
    <line x1="0" y1="520" x2="1280" y2="520"/><line x1="0" y1="560" x2="1280" y2="560"/>
    <line x1="0" y1="600" x2="1280" y2="600"/>
    <line x1="40" y1="0" x2="40" y2="640"/><line x1="80" y1="0" x2="80" y2="640"/>
    <line x1="120" y1="0" x2="120" y2="640"/><line x1="160" y1="0" x2="160" y2="640"/>
    <line x1="200" y1="0" x2="200" y2="640"/><line x1="240" y1="0" x2="240" y2="640"/>
    <line x1="280" y1="0" x2="280" y2="640"/><line x1="320" y1="0" x2="320" y2="640"/>
    <line x1="360" y1="0" x2="360" y2="640"/><line x1="400" y1="0" x2="400" y2="640"/>
    <line x1="440" y1="0" x2="440" y2="640"/><line x1="480" y1="0" x2="480" y2="640"/>
    <line x1="520" y1="0" x2="520" y2="640"/><line x1="560" y1="0" x2="560" y2="640"/>
    <line x1="600" y1="0" x2="600" y2="640"/><line x1="640" y1="0" x2="640" y2="640"/>
    <line x1="680" y1="0" x2="680" y2="640"/><line x1="720" y1="0" x2="720" y2="640"/>
    <line x1="760" y1="0" x2="760" y2="640"/><line x1="800" y1="0" x2="800" y2="640"/>
    <line x1="840" y1="0" x2="840" y2="640"/><line x1="880" y1="0" x2="880" y2="640"/>
    <line x1="920" y1="0" x2="920" y2="640"/><line x1="960" y1="0" x2="960" y2="640"/>
    <line x1="1000" y1="0" x2="1000" y2="640"/><line x1="1040" y1="0" x2="1040" y2="640"/>
    <line x1="1080" y1="0" x2="1080" y2="640"/><line x1="1120" y1="0" x2="1120" y2="640"/>
    <line x1="1160" y1="0" x2="1160" y2="640"/><line x1="1200" y1="0" x2="1200" y2="640"/>
    <line x1="1240" y1="0" x2="1240" y2="640"/>
  </g>

  <!-- Green glow -->
  <rect width="1280" height="640" fill="url(#glow)"/>

  <!-- Zombie emoji -->
  <text x="640" y="150" text-anchor="middle" font-size="80">🧟</text>

  <!-- Title -->
  <text x="640" y="260" text-anchor="middle" font-family="monospace" font-weight="bold" font-size="72" fill="#4ade80">zombiefiles</text>

  <!-- Tagline -->
  <text x="640" y="310" text-anchor="middle" font-family="monospace" font-size="24" fill="#9ca3af">Find zombie files nobody touched for months.</text>

  <!-- Terminal box -->
  <rect x="240" y="370" width="800" height="220" rx="12" fill="#161b22" stroke="#4ade80" stroke-opacity="0.2"/>

  <!-- Terminal dots -->
  <circle cx="268" cy="394" r="6" fill="#ff5f57"/>
  <circle cx="290" cy="394" r="6" fill="#febc2e"/>
  <circle cx="312" cy="394" r="6" fill="#28c840"/>

  <!-- Terminal content -->
  <text x="268" y="440" font-family="monospace" font-size="18" fill="#9ca3af">$<tspan fill="#4ade80"> npx zombiefiles</tspan></text>

  <text x="268" y="478" font-family="monospace" font-size="18">
    <tspan fill="#e5e7eb">auth-old.js</tspan>
    <tspan fill="#6b7280"> — untouched for 14 months</tspan>
  </text>

  <text x="268" y="506" font-family="monospace" font-size="18">
    <tspan fill="#e5e7eb">utils/temp.ts</tspan>
    <tspan fill="#6b7280"> — untouched for 10 months</tspan>
  </text>

  <text x="268" y="534" font-family="monospace" font-size="18">
    <tspan fill="#e5e7eb">lib/legacy.js</tspan>
    <tspan fill="#6b7280"> — untouched for 6 months</tspan>
  </text>

  <text x="268" y="568" font-family="monospace" font-size="16" fill="#6b7280">Found 3 zombie files.</text>
</svg>
